# xmcd CD database file
#
# Track frame offsets:
#	150
#	57900
#	75729
#	94423
#	117153
#	126361
#	150446
#	171150
#	193419
#	214545
#	232533
#	242833
#
# Disc length: 3485 seconds
#
# Revision: 0
# Processed by: cddbd v1.5.2PL0 Copyright (c) Steve Scherf et al.
# Submitted via: CDex 1.51
#
DISCID=9b0d9b0c
DTITLE=François Raulin and Stephan Oliva - Correspondances
DYEAR=2016
DGENRE=Jazz
TTITLE0=Cher Martial
TTITLE1=Lettre A Emma Bovary
TTITLE2=Télégrammes
TTITLE3=A Randy Weston
TTITLE4=Hermeto En-Tête
TTITLE5=Lettre A Jean-Jacques Avenel
TTITLE6=Tango Indigo
TTITLE7=Conversations Sur Dutilleux
TTITLE8=Sometimes I Feel Like A Motherlesschild
TTITLE9=Nancarrow Furioso
TTITLE10=Jimmy
TTITLE11=In A Mist
EXTD=YEAR: 2016
EXTT0=
EXTT1=
EXTT2=
EXTT3=
EXTT4=
EXTT5=
EXTT6=
EXTT7=
EXTT8=
EXTT9=
EXTT10=
EXTT11=
PLAYORDER=
